<?xml version="1.0" standalone="no"?>
<!DOCTYPE svg PUBLIC "-//W3C//DTD SVG 20010904//EN"
 "http://www.w3.org/TR/2001/REC-SVG-20010904/DTD/svg10.dtd">
<svg version="1.0" xmlns="http://www.w3.org/2000/svg"
 width="700.000000pt" height="700.000000pt" viewBox="0 0 700.000000 700.000000"
 preserveAspectRatio="xMidYMid meet">
<metadata>
Created by potrace 1.11, written by Peter Selinger 2001-2013
</metadata>
<g transform="translate(0.000000,700.000000) scale(0.100000,-0.100000)"
fill="#000000" stroke="none">
<path d="M6951 5782 c-6 -2 -8 -9 -4 -15 4 -7 0 -6 -10 1 -9 8 -20 11 -25 8
-7 -4 -272 -62 -377 -82 -21 -4 -103 -21 -145 -30 -14 -2 -56 -11 -95 -19 -38
-8 -137 -28 -220 -45 -82 -18 -159 -33 -170 -36 -19 -3 -29 -6 -95 -20 -33 -7
-65 -13 -92 -18 -13 -2 -156 -32 -318 -66 -162 -34 -306 -64 -320 -66 -14 -3
-68 -14 -120 -25 -52 -11 -105 -23 -117 -25 -13 -2 -33 -6 -45 -8 -13 -3 -153
-32 -313 -65 -159 -33 -301 -62 -315 -65 -14 -2 -81 -17 -150 -31 -69 -15
-134 -29 -145 -30 -41 -8 -80 -16 -95 -20 -8 -2 -31 -7 -50 -10 -19 -3 -44 -9
-55 -12 -11 -3 -29 -7 -40 -9 -22 -3 -217 -42 -250 -50 -21 -5 -48 -11 -87
-18 -13 -3 -45 -9 -73 -15 -27 -6 -61 -13 -75 -15 -14 -3 -34 -7 -45 -9 -33
-8 -228 -49 -250 -53 -20 -4 -36 -7 -105 -21 -41 -8 -31 -6 -100 -21 -30 -7
-64 -14 -75 -16 -16 -4 -511 -106 -590 -122 -11 -2 -33 -7 -50 -9 -16 -3 -37
-8 -45 -10 -8 -2 -26 -6 -40 -9 -110 -21 -190 -38 -220 -46 -19 -5 -51 -11
-70 -14 -19 -3 -75 -14 -125 -25 -92 -20 -124 -27 -172 -36 -16 -3 -41 -8 -58
-12 -16 -4 -34 -8 -40 -9 -108 -22 -409 -84 -535 -110 -91 -19 -185 -39 -210
-44 -25 -5 -55 -11 -66 -14 -12 -2 -38 -7 -59 -10 -20 -4 -40 -8 -44 -10 -3
-2 -22 -7 -41 -10 -61 -10 -93 -17 -100 -21 -4 -2 -29 -7 -56 -11 -27 -3 -50
-7 -52 -9 -1 -1 19 -13 45 -27 108 -56 292 -153 358 -188 67 -35 140 -74 355
-188 100 -52 218 -115 410 -215 63 -33 138 -72 165 -87 28 -15 104 -56 170
-90 66 -35 190 -100 275 -145 85 -45 183 -97 216 -114 59 -31 62 -34 70 -79 4
-26 8 -51 10 -57 2 -10 4 -20 24 -135 6 -30 12 -66 15 -80 3 -14 12 -65 20
-115 14 -81 35 -193 80 -440 8 -44 17 -91 19 -105 3 -22 10 -59 22 -125 2 -11
11 -58 19 -105 8 -47 17 -96 20 -110 3 -14 8 -41 11 -60 3 -19 7 -42 9 -50 2
-8 7 -35 10 -60 3 -25 8 -52 10 -60 2 -8 7 -31 10 -50 3 -19 10 -57 15 -85 5
-27 12 -63 15 -80 5 -29 24 -134 30 -165 2 -8 6 -38 10 -67 l7 -52 713 475
712 476 119 -78 c66 -42 159 -104 207 -136 49 -32 90 -58 92 -58 1 0 56 -35
121 -78 66 -43 153 -100 194 -127 160 -104 360 -234 477 -310 67 -44 153 -99
190 -122 l67 -43 59 163 c74 204 93 255 207 562 51 138 109 297 130 355 21 58
50 137 65 175 15 39 28 75 29 80 2 6 8 22 14 36 6 15 24 64 40 110 16 46 50
138 75 204 46 122 173 466 232 630 18 50 62 169 98 265 36 96 100 270 142 385
83 224 119 321 128 345 3 8 17 49 32 90 14 41 31 86 37 100 5 14 43 115 83
225 40 110 98 270 130 355 31 85 60 164 65 175 5 11 28 72 51 135 75 209 70
189 50 187 -10 0 -23 -3 -30 -5z"/>
</g>
</svg>
